<?xml version='1.0' encoding='UTF-8'?>
<svg width="54mm" height="54mm" version="1.1" viewBox="0 0 54 54" xmlns="http://www.w3.org/2000/svg"><path d="M2.4,2.4H3.6V3.6H2.4zM3.6,2.4H4.8V3.6H3.6zM4.8,2.4H6V3.6H4.8zM6,2.4H7.2V3.6H6zM7.2,2.4H8.4V3.6H7.2zM8.4,2.4H9.6V3.6H8.4zM9.6,2.4H10.8V3.6H9.6zM12,2.4H13.2V3.6H12zM13.2,2.4H14.4V3.6H13.2zM16.8,2.4H18V3.6H16.8zM20.4,2.4H21.6V3.6H20.4zM27.6,2.4H28.8V3.6H27.6zM28.8,2.4H30V3.6H28.8zM31.2,2.4H32.4V3.6H31.2zM34.8,2.4H36V3.6H34.8zM39.6,2.4H40.8V3.6H39.6zM43.2,2.4H44.4V3.6H43.2zM44.4,2.4H45.6V3.6H44.4zM45.6,2.4H46.8V3.6H45.6zM46.8,2.4H48V3.6H46.8zM48,2.4H49.2V3.6H48zM49.2,2.4H50.4V3.6H49.2zM50.4,2.4H51.6V3.6H50.4zM2.4,3.6H3.6V4.8H2.4zM9.6,3.6H10.8V4.8H9.6zM14.4,3.6H15.6V4.8H14.4zM15.6,3.6H16.8V4.8H15.6zM18,3.6H19.2V4.8H18zM19.2,3.6H20.4V4.8H19.2zM24,3.6H25.2V4.8H24zM25.2,3.6H26.4V4.8H25.2zM28.8,3.6H30V4.8H28.8zM31.2,3.6H32.4V4.8H31.2zM32.4,3.6H33.6V4.8H32.4zM34.8,3.6H36V4.8H34.8zM37.2,3.6H38.4V4.8H37.2zM38.4,3.6H39.6V4.8H38.4zM40.8,3.6H42V4.8H40.8zM43.2,3.6H44.4V4.8H43.2zM50.4,3.6H51.6V4.8H50.4zM2.4,4.8H3.6V6H2.4zM4.8,4.8H6V6H4.8zM6,4.8H7.2V6H6zM7.2,4.8H8.4V6H7.2zM9.6,4.8H10.8V6H9.6zM12,4.8H13.2V6H12zM24,4.8H25.2V6H24zM26.4,4.8H27.6V6H26.4zM33.6,4.8H34.8V6H33.6zM34.8,4.8H36V6H34.8zM37.2,4.8H38.4V6H37.2zM40.8,4.8H42V6H40.8zM43.2,4.8H44.4V6H43.2zM45.6,4.8H46.8V6H45.6zM46.8,4.8H48V6H46.8zM48,4.8H49.2V6H48zM50.4,4.8H51.6V6H50.4zM2.4,6H3.6V7.2H2.4zM4.8,6H6V7.2H4.8zM6,6H7.2V7.2H6zM7.2,6H8.4V7.2H7.2zM9.6,6H10.8V7.2H9.6zM12,6H13.2V7.2H12zM13.2,6H14.4V7.2H13.2zM14.4,6H15.6V7.2H14.4zM15.6,6H16.8V7.2H15.6zM16.8,6H18V7.2H16.8zM18,6H19.2V7.2H18zM19.2,6H20.4V7.2H19.2zM20.4,6H21.6V7.2H20.4zM22.8,6H24V7.2H22.8zM26.4,6H27.6V7.2H26.4zM28.8,6H30V7.2H28.8zM30,6H31.2V7.2H30zM33.6,6H34.8V7.2H33.6zM38.4,6H39.6V7.2H38.4zM43.2,6H44.4V7.2H43.2zM45.6,6H46.8V7.2H45.6zM46.8,6H48V7.2H46.8zM48,6H49.2V7.2H48zM50.4,6H51.6V7.2H50.4zM2.4,7.2H3.6V8.4H2.4zM4.8,7.2H6V8.4H4.8zM6,7.2H7.2V8.4H6zM7.2,7.2H8.4V8.4H7.2zM9.6,7.2H10.8V8.4H9.6zM15.6,7.2H16.8V8.4H15.6zM18,7.2H19.2V8.4H18zM19.2,7.2H20.4V8.4H19.2zM20.4,7.2H21.6V8.4H20.4zM21.6,7.2H22.8V8.4H21.6zM22.8,7.2H24V8.4H22.8zM25.2,7.2H26.4V8.4H25.2zM26.4,7.2H27.6V8.4H26.4zM28.8,7.2H30V8.4H28.8zM31.2,7.2H32.4V8.4H31.2zM32.4,7.2H33.6V8.4H32.4zM34.8,7.2H36V8.4H34.8zM36,7.2H37.2V8.4H36zM38.4,7.2H39.6V8.4H38.4zM43.2,7.2H44.4V8.4H43.2zM45.6,7.2H46.8V8.4H45.6zM46.8,7.2H48V8.4H46.8zM48,7.2H49.2V8.4H48zM50.4,7.2H51.6V8.4H50.4zM2.4,8.4H3.6V9.6H2.4zM9.6,8.4H10.8V9.6H9.6zM12,8.4H13.2V9.6H12zM13.2,8.4H14.4V9.6H13.2zM15.6,8.4H16.8V9.6H15.6zM18,8.4H19.2V9.6H18zM30,8.4H31.2V9.6H30zM31.2,8.4H32.4V9.6H31.2zM33.6,8.4H34.8V9.6H33.6zM34.8,8.4H36V9.6H34.8zM36,8.4H37.2V9.6H36zM37.2,8.4H38.4V9.6H37.2zM39.6,8.4H40.8V9.6H39.6zM43.2,8.4H44.4V9.6H43.2zM50.4,8.4H51.6V9.6H50.4zM2.4,9.6H3.6V10.8H2.4zM3.6,9.6H4.8V10.8H3.6zM4.8,9.6H6V10.8H4.8zM6,9.6H7.2V10.8H6zM7.2,9.6H8.4V10.8H7.2zM8.4,9.6H9.6V10.8H8.4zM9.6,9.6H10.8V10.8H9.6zM12,9.6H13.2V10.8H12zM14.4,9.6H15.6V10.8H14.4zM16.8,9.6H18V10.8H16.8zM19.2,9.6H20.4V10.8H19.2zM21.6,9.6H22.8V10.8H21.6zM24,9.6H25.2V10.8H24zM26.4,9.6H27.6V10.8H26.4zM28.8,9.6H30V10.8H28.8zM31.2,9.6H32.4V10.8H31.2zM33.6,9.6H34.8V10.8H33.6zM36,9.6H37.2V10.8H36zM38.4,9.6H39.6V10.8H38.4zM40.8,9.6H42V10.8H40.8zM43.2,9.6H44.4V10.8H43.2zM44.4,9.6H45.6V10.8H44.4zM45.6,9.6H46.8V10.8H45.6zM46.8,9.6H48V10.8H46.8zM48,9.6H49.2V10.8H48zM49.2,9.6H50.4V10.8H49.2zM50.4,9.6H51.6V10.8H50.4zM12,10.8H13.2V12H12zM13.2,10.8H14.4V12H13.2zM14.4,10.8H15.6V12H14.4zM20.4,10.8H21.6V12H20.4zM21.6,10.8H22.8V12H21.6zM22.8,10.8H24V12H22.8zM25.2,10.8H26.4V12H25.2zM27.6,10.8H28.8V12H27.6zM30,10.8H31.2V12H30zM31.2,10.8H32.4V12H31.2zM37.2,10.8H38.4V12H37.2zM38.4,10.8H39.6V12H38.4zM3.6,12H4.8V13.2H3.6zM6,12H7.2V13.2H6zM8.4,12H9.6V13.2H8.4zM9.6,12H10.8V13.2H9.6zM10.8,12H12V13.2H10.8zM12,12H13.2V13.2H12zM18,12H19.2V13.2H18zM19.2,12H20.4V13.2H19.2zM26.4,12H27.6V13.2H26.4zM27.6,12H28.8V13.2H27.6zM28.8,12H30V13.2H28.8zM31.2,12H32.4V13.2H31.2zM32.4,12H33.6V13.2H32.4zM33.6,12H34.8V13.2H33.6zM34.8,12H36V13.2H34.8zM42,12H43.2V13.2H42zM43.2,12H44.4V13.2H43.2zM44.4,12H45.6V13.2H44.4zM46.8,12H48V13.2H46.8zM48,12H49.2V13.2H48zM50.4,12H51.6V13.2H50.4zM2.4,13.2H3.6V14.4H2.4zM3.6,13.2H4.8V14.4H3.6zM6,13.2H7.2V14.4H6zM10.8,13.2H12V14.4H10.8zM13.2,13.2H14.4V14.4H13.2zM15.6,13.2H16.8V14.4H15.6zM16.8,13.2H18V14.4H16.8zM19.2,13.2H20.4V14.4H19.2zM22.8,13.2H24V14.4H22.8zM26.4,13.2H27.6V14.4H26.4zM36,13.2H37.2V14.4H36zM40.8,13.2H42V14.4H40.8zM42,13.2H43.2V14.4H42zM43.2,13.2H44.4V14.4H43.2zM46.8,13.2H48V14.4H46.8zM48,13.2H49.2V14.4H48zM49.2,13.2H50.4V14.4H49.2zM50.4,13.2H51.6V14.4H50.4zM2.4,14.4H3.6V15.6H2.4zM4.8,14.4H6V15.6H4.8zM7.2,14.4H8.4V15.6H7.2zM9.6,14.4H10.8V15.6H9.6zM15.6,14.4H16.8V15.6H15.6zM16.8,14.4H18V15.6H16.8zM18,14.4H19.2V15.6H18zM21.6,14.4H22.8V15.6H21.6zM27.6,14.4H28.8V15.6H27.6zM28.8,14.4H30V15.6H28.8zM32.4,14.4H33.6V15.6H32.4zM37.2,14.4H38.4V15.6H37.2zM38.4,14.4H39.6V15.6H38.4zM39.6,14.4H40.8V15.6H39.6zM42,14.4H43.2V15.6H42zM44.4,14.4H45.6V15.6H44.4zM45.6,14.4H46.8V15.6H45.6zM46.8,14.4H48V15.6H46.8zM48,14.4H49.2V15.6H48zM49.2,14.4H50.4V15.6H49.2zM2.4,15.6H3.6V16.8H2.4zM4.8,15.6H6V16.8H4.8zM7.2,15.6H8.4V16.8H7.2zM14.4,15.6H15.6V16.8H14.4zM16.8,15.6H18V16.8H16.8zM18,15.6H19.2V16.8H18zM20.4,15.6H21.6V16.8H20.4zM22.8,15.6H24V16.8H22.8zM24,15.6H25.2V16.8H24zM25.2,15.6H26.4V16.8H25.2zM27.6,15.6H28.8V16.8H27.6zM28.8,15.6H30V16.8H28.8zM30,15.6H31.2V16.8H30zM32.4,15.6H33.6V16.8H32.4zM34.8,15.6H36V16.8H34.8zM36,15.6H37.2V16.8H36zM44.4,15.6H45.6V16.8H44.4zM48,15.6H49.2V16.8H48zM2.4,16.8H3.6V18H2.4zM3.6,16.8H4.8V18H3.6zM9.6,16.8H10.8V18H9.6zM12,16.8H13.2V18H12zM14.4,16.8H15.6V18H14.4zM15.6,16.8H16.8V18H15.6zM18,16.8H19.2V18H18zM19.2,16.8H20.4V18H19.2zM21.6,16.8H22.8V18H21.6zM22.8,16.8H24V18H22.8zM26.4,16.8H27.6V18H26.4zM27.6,16.8H28.8V18H27.6zM28.8,16.8H30V18H28.8zM30,16.8H31.2V18H30zM31.2,16.8H32.4V18H31.2zM32.4,16.8H33.6V18H32.4zM33.6,16.8H34.8V18H33.6zM37.2,16.8H38.4V18H37.2zM39.6,16.8H40.8V18H39.6zM40.8,16.8H42V18H40.8zM42,16.8H43.2V18H42zM43.2,16.8H44.4V18H43.2zM46.8,16.8H48V18H46.8zM3.6,18H4.8V19.2H3.6zM13.2,18H14.4V19.2H13.2zM14.4,18H15.6V19.2H14.4zM16.8,18H18V19.2H16.8zM21.6,18H22.8V19.2H21.6zM25.2,18H26.4V19.2H25.2zM26.4,18H27.6V19.2H26.4zM30,18H31.2V19.2H30zM37.2,18H38.4V19.2H37.2zM39.6,18H40.8V19.2H39.6zM40.8,18H42V19.2H40.8zM42,18H43.2V19.2H42zM46.8,18H48V19.2H46.8zM49.2,18H50.4V19.2H49.2zM7.2,19.2H8.4V20.4H7.2zM9.6,19.2H10.8V20.4H9.6zM12,19.2H13.2V20.4H12zM15.6,19.2H16.8V20.4H15.6zM21.6,19.2H22.8V20.4H21.6zM22.8,19.2H24V20.4H22.8zM25.2,19.2H26.4V20.4H25.2zM26.4,19.2H27.6V20.4H26.4zM28.8,19.2H30V20.4H28.8zM30,19.2H31.2V20.4H30zM32.4,19.2H33.6V20.4H32.4zM38.4,19.2H39.6V20.4H38.4zM43.2,19.2H44.4V20.4H43.2zM45.6,19.2H46.8V20.4H45.6zM46.8,19.2H48V20.4H46.8zM49.2,19.2H50.4V20.4H49.2zM50.4,19.2H51.6V20.4H50.4zM2.4,20.4H3.6V21.6H2.4zM3.6,20.4H4.8V21.6H3.6zM4.8,20.4H6V21.6H4.8zM6,20.4H7.2V21.6H6zM12,20.4H13.2V21.6H12zM14.4,20.4H15.6V21.6H14.4zM15.6,20.4H16.8V21.6H15.6zM19.2,20.4H20.4V21.6H19.2zM21.6,20.4H22.8V21.6H21.6zM22.8,20.4H24V21.6H22.8zM24,20.4H25.2V21.6H24zM26.4,20.4H27.6V21.6H26.4zM27.6,20.4H28.8V21.6H27.6zM30,20.4H31.2V21.6H30zM32.4,20.4H33.6V21.6H32.4zM34.8,20.4H36V21.6H34.8zM37.2,20.4H38.4V21.6H37.2zM38.4,20.4H39.6V21.6H38.4zM39.6,20.4H40.8V21.6H39.6zM40.8,20.4H42V21.6H40.8zM43.2,20.4H44.4V21.6H43.2zM45.6,20.4H46.8V21.6H45.6zM50.4,20.4H51.6V21.6H50.4zM2.4,21.6H3.6V22.8H2.4zM4.8,21.6H6V22.8H4.8zM7.2,21.6H8.4V22.8H7.2zM8.4,21.6H9.6V22.8H8.4zM9.6,21.6H10.8V22.8H9.6zM13.2,21.6H14.4V22.8H13.2zM15.6,21.6H16.8V22.8H15.6zM16.8,21.6H18V22.8H16.8zM18,21.6H19.2V22.8H18zM19.2,21.6H20.4V22.8H19.2zM22.8,21.6H24V22.8H22.8zM25.2,21.6H26.4V22.8H25.2zM27.6,21.6H28.8V22.8H27.6zM31.2,21.6H32.4V22.8H31.2zM34.8,21.6H36V22.8H34.8zM37.2,21.6H38.4V22.8H37.2zM39.6,21.6H40.8V22.8H39.6zM40.8,21.6H42V22.8H40.8zM44.4,21.6H45.6V22.8H44.4zM2.4,22.8H3.6V24H2.4zM4.8,22.8H6V24H4.8zM6,22.8H7.2V24H6zM8.4,22.8H9.6V24H8.4zM14.4,22.8H15.6V24H14.4zM16.8,22.8H18V24H16.8zM20.4,22.8H21.6V24H20.4zM24,22.8H25.2V24H24zM25.2,22.8H26.4V24H25.2zM30,22.8H31.2V24H30zM32.4,22.8H33.6V24H32.4zM33.6,22.8H34.8V24H33.6zM36,22.8H37.2V24H36zM37.2,22.8H38.4V24H37.2zM40.8,22.8H42V24H40.8zM43.2,22.8H44.4V24H43.2zM44.4,22.8H45.6V24H44.4zM46.8,22.8H48V24H46.8zM48,22.8H49.2V24H48zM49.2,22.8H50.4V24H49.2zM50.4,22.8H51.6V24H50.4zM2.4,24H3.6V25.2H2.4zM4.8,24H6V25.2H4.8zM7.2,24H8.4V25.2H7.2zM8.4,24H9.6V25.2H8.4zM9.6,24H10.8V25.2H9.6zM12,24H13.2V25.2H12zM14.4,24H15.6V25.2H14.4zM16.8,24H18V25.2H16.8zM21.6,24H22.8V25.2H21.6zM22.8,24H24V25.2H22.8zM25.2,24H26.4V25.2H25.2zM26.4,24H27.6V25.2H26.4zM28.8,24H30V25.2H28.8zM31.2,24H32.4V25.2H31.2zM42,24H43.2V25.2H42zM43.2,24H44.4V25.2H43.2zM45.6,24H46.8V25.2H45.6zM46.8,24H48V25.2H46.8zM48,24H49.2V25.2H48zM49.2,24H50.4V25.2H49.2zM50.4,24H51.6V25.2H50.4zM3.6,25.2H4.8V26.4H3.6zM4.8,25.2H6V26.4H4.8zM6,25.2H7.2V26.4H6zM8.4,25.2H9.6V26.4H8.4zM12,25.2H13.2V26.4H12zM13.2,25.2H14.4V26.4H13.2zM15.6,25.2H16.8V26.4H15.6zM16.8,25.2H18V26.4H16.8zM19.2,25.2H20.4V26.4H19.2zM26.4,25.2H27.6V26.4H26.4zM30,25.2H31.2V26.4H30zM31.2,25.2H32.4V26.4H31.2zM36,25.2H37.2V26.4H36zM37.2,25.2H38.4V26.4H37.2zM39.6,25.2H40.8V26.4H39.6zM40.8,25.2H42V26.4H40.8zM43.2,25.2H44.4V26.4H43.2zM44.4,25.2H45.6V26.4H44.4zM46.8,25.2H48V26.4H46.8zM49.2,25.2H50.4V26.4H49.2zM2.4,26.4H3.6V27.6H2.4zM3.6,26.4H4.8V27.6H3.6zM4.8,26.4H6V27.6H4.8zM8.4,26.4H9.6V27.6H8.4zM9.6,26.4H10.8V27.6H9.6zM12,26.4H13.2V27.6H12zM14.4,26.4H15.6V27.6H14.4zM18,26.4H19.2V27.6H18zM21.6,26.4H22.8V27.6H21.6zM22.8,26.4H24V27.6H22.8zM25.2,26.4H26.4V27.6H25.2zM26.4,26.4H27.6V27.6H26.4zM28.8,26.4H30V27.6H28.8zM31.2,26.4H32.4V27.6H31.2zM32.4,26.4H33.6V27.6H32.4zM33.6,26.4H34.8V27.6H33.6zM36,26.4H37.2V27.6H36zM38.4,26.4H39.6V27.6H38.4zM39.6,26.4H40.8V27.6H39.6zM42,26.4H43.2V27.6H42zM43.2,26.4H44.4V27.6H43.2zM44.4,26.4H45.6V27.6H44.4zM48,26.4H49.2V27.6H48zM4.8,27.6H6V28.8H4.8zM7.2,27.6H8.4V28.8H7.2zM8.4,27.6H9.6V28.8H8.4zM14.4,27.6H15.6V28.8H14.4zM15.6,27.6H16.8V28.8H15.6zM18,27.6H19.2V28.8H18zM19.2,27.6H20.4V28.8H19.2zM20.4,27.6H21.6V28.8H20.4zM24,27.6H25.2V28.8H24zM28.8,27.6H30V28.8H28.8zM31.2,27.6H32.4V28.8H31.2zM32.4,27.6H33.6V28.8H32.4zM36,27.6H37.2V28.8H36zM37.2,27.6H38.4V28.8H37.2zM40.8,27.6H42V28.8H40.8zM42,27.6H43.2V28.8H42zM43.2,27.6H44.4V28.8H43.2zM48,27.6H49.2V28.8H48zM49.2,27.6H50.4V28.8H49.2zM50.4,27.6H51.6V28.8H50.4zM2.4,28.8H3.6V30H2.4zM3.6,28.8H4.8V30H3.6zM8.4,28.8H9.6V30H8.4zM9.6,28.8H10.8V30H9.6zM12,28.8H13.2V30H12zM13.2,28.8H14.4V30H13.2zM14.4,28.8H15.6V30H14.4zM24,28.8H25.2V30H24zM27.6,28.8H28.8V30H27.6zM32.4,28.8H33.6V30H32.4zM33.6,28.8H34.8V30H33.6zM36,28.8H37.2V30H36zM38.4,28.8H39.6V30H38.4zM39.6,28.8H40.8V30H39.6zM42,28.8H43.2V30H42zM43.2,28.8H44.4V30H43.2zM44.4,28.8H45.6V30H44.4zM48,28.8H49.2V30H48zM49.2,28.8H50.4V30H49.2zM2.4,30H3.6V31.2H2.4zM6,30H7.2V31.2H6zM7.2,30H8.4V31.2H7.2zM8.4,30H9.6V31.2H8.4zM14.4,30H15.6V31.2H14.4zM15.6,30H16.8V31.2H15.6zM16.8,30H18V31.2H16.8zM19.2,30H20.4V31.2H19.2zM21.6,30H22.8V31.2H21.6zM26.4,30H27.6V31.2H26.4zM28.8,30H30V31.2H28.8zM31.2,30H32.4V31.2H31.2zM32.4,30H33.6V31.2H32.4zM38.4,30H39.6V31.2H38.4zM40.8,30H42V31.2H40.8zM42,30H43.2V31.2H42zM43.2,30H44.4V31.2H43.2zM44.4,30H45.6V31.2H44.4zM48,30H49.2V31.2H48zM49.2,30H50.4V31.2H49.2zM50.4,30H51.6V31.2H50.4zM2.4,31.2H3.6V32.4H2.4zM6,31.2H7.2V32.4H6zM9.6,31.2H10.8V32.4H9.6zM10.8,31.2H12V32.4H10.8zM12,31.2H13.2V32.4H12zM14.4,31.2H15.6V32.4H14.4zM15.6,31.2H16.8V32.4H15.6zM20.4,31.2H21.6V32.4H20.4zM21.6,31.2H22.8V32.4H21.6zM22.8,31.2H24V32.4H22.8zM26.4,31.2H27.6V32.4H26.4zM27.6,31.2H28.8V32.4H27.6zM28.8,31.2H30V32.4H28.8zM31.2,31.2H32.4V32.4H31.2zM32.4,31.2H33.6V32.4H32.4zM33.6,31.2H34.8V32.4H33.6zM36,31.2H37.2V32.4H36zM37.2,31.2H38.4V32.4H37.2zM40.8,31.2H42V32.4H40.8zM42,31.2H43.2V32.4H42zM43.2,31.2H44.4V32.4H43.2zM8.4,32.4H9.6V33.6H8.4zM10.8,32.4H12V33.6H10.8zM12,32.4H13.2V33.6H12zM13.2,32.4H14.4V33.6H13.2zM20.4,32.4H21.6V33.6H20.4zM22.8,32.4H24V33.6H22.8zM26.4,32.4H27.6V33.6H26.4zM27.6,32.4H28.8V33.6H27.6zM28.8,32.4H30V33.6H28.8zM31.2,32.4H32.4V33.6H31.2zM32.4,32.4H33.6V33.6H32.4zM37.2,32.4H38.4V33.6H37.2zM38.4,32.4H39.6V33.6H38.4zM39.6,32.4H40.8V33.6H39.6zM46.8,32.4H48V33.6H46.8zM49.2,32.4H50.4V33.6H49.2zM3.6,33.6H4.8V34.8H3.6zM4.8,33.6H6V34.8H4.8zM9.6,33.6H10.8V34.8H9.6zM14.4,33.6H15.6V34.8H14.4zM15.6,33.6H16.8V34.8H15.6zM18,33.6H19.2V34.8H18zM19.2,33.6H20.4V34.8H19.2zM21.6,33.6H22.8V34.8H21.6zM24,33.6H25.2V34.8H24zM25.2,33.6H26.4V34.8H25.2zM28.8,33.6H30V34.8H28.8zM30,33.6H31.2V34.8H30zM31.2,33.6H32.4V34.8H31.2zM32.4,33.6H33.6V34.8H32.4zM33.6,33.6H34.8V34.8H33.6zM37.2,33.6H38.4V34.8H37.2zM40.8,33.6H42V34.8H40.8zM42,33.6H43.2V34.8H42zM45.6,33.6H46.8V34.8H45.6zM49.2,33.6H50.4V34.8H49.2zM50.4,33.6H51.6V34.8H50.4zM2.4,34.8H3.6V36H2.4zM7.2,34.8H8.4V36H7.2zM8.4,34.8H9.6V36H8.4zM10.8,34.8H12V36H10.8zM12,34.8H13.2V36H12zM13.2,34.8H14.4V36H13.2zM14.4,34.8H15.6V36H14.4zM16.8,34.8H18V36H16.8zM18,34.8H19.2V36H18zM19.2,34.8H20.4V36H19.2zM26.4,34.8H27.6V36H26.4zM28.8,34.8H30V36H28.8zM30,34.8H31.2V36H30zM31.2,34.8H32.4V36H31.2zM32.4,34.8H33.6V36H32.4zM33.6,34.8H34.8V36H33.6zM34.8,34.8H36V36H34.8zM36,34.8H37.2V36H36zM37.2,34.8H38.4V36H37.2zM38.4,34.8H39.6V36H38.4zM40.8,34.8H42V36H40.8zM42,34.8H43.2V36H42zM43.2,34.8H44.4V36H43.2zM44.4,34.8H45.6V36H44.4zM45.6,34.8H46.8V36H45.6zM50.4,34.8H51.6V36H50.4zM2.4,36H3.6V37.2H2.4zM4.8,36H6V37.2H4.8zM6,36H7.2V37.2H6zM9.6,36H10.8V37.2H9.6zM12,36H13.2V37.2H12zM13.2,36H14.4V37.2H13.2zM15.6,36H16.8V37.2H15.6zM16.8,36H18V37.2H16.8zM21.6,36H22.8V37.2H21.6zM22.8,36H24V37.2H22.8zM24,36H25.2V37.2H24zM26.4,36H27.6V37.2H26.4zM28.8,36H30V37.2H28.8zM31.2,36H32.4V37.2H31.2zM37.2,36H38.4V37.2H37.2zM38.4,36H39.6V37.2H38.4zM40.8,36H42V37.2H40.8zM49.2,36H50.4V37.2H49.2zM50.4,36H51.6V37.2H50.4zM4.8,37.2H6V38.4H4.8zM6,37.2H7.2V38.4H6zM8.4,37.2H9.6V38.4H8.4zM10.8,37.2H12V38.4H10.8zM12,37.2H13.2V38.4H12zM13.2,37.2H14.4V38.4H13.2zM15.6,37.2H16.8V38.4H15.6zM19.2,37.2H20.4V38.4H19.2zM24,37.2H25.2V38.4H24zM25.2,37.2H26.4V38.4H25.2zM26.4,37.2H27.6V38.4H26.4zM27.6,37.2H28.8V38.4H27.6zM30,37.2H31.2V38.4H30zM31.2,37.2H32.4V38.4H31.2zM36,37.2H37.2V38.4H36zM42,37.2H43.2V38.4H42zM43.2,37.2H44.4V38.4H43.2zM44.4,37.2H45.6V38.4H44.4zM46.8,37.2H48V38.4H46.8zM48,37.2H49.2V38.4H48zM50.4,37.2H51.6V38.4H50.4zM2.4,38.4H3.6V39.6H2.4zM4.8,38.4H6V39.6H4.8zM8.4,38.4H9.6V39.6H8.4zM9.6,38.4H10.8V39.6H9.6zM14.4,38.4H15.6V39.6H14.4zM15.6,38.4H16.8V39.6H15.6zM19.2,38.4H20.4V39.6H19.2zM20.4,38.4H21.6V39.6H20.4zM24,38.4H25.2V39.6H24zM26.4,38.4H27.6V39.6H26.4zM27.6,38.4H28.8V39.6H27.6zM28.8,38.4H30V39.6H28.8zM33.6,38.4H34.8V39.6H33.6zM44.4,38.4H45.6V39.6H44.4zM45.6,38.4H46.8V39.6H45.6zM46.8,38.4H48V39.6H46.8zM49.2,38.4H50.4V39.6H49.2zM50.4,38.4H51.6V39.6H50.4zM6,39.6H7.2V40.8H6zM8.4,39.6H9.6V40.8H8.4zM10.8,39.6H12V40.8H10.8zM12,39.6H13.2V40.8H12zM13.2,39.6H14.4V40.8H13.2zM15.6,39.6H16.8V40.8H15.6zM16.8,39.6H18V40.8H16.8zM20.4,39.6H21.6V40.8H20.4zM21.6,39.6H22.8V40.8H21.6zM22.8,39.6H24V40.8H22.8zM24,39.6H25.2V40.8H24zM26.4,39.6H27.6V40.8H26.4zM28.8,39.6H30V40.8H28.8zM30,39.6H31.2V40.8H30zM31.2,39.6H32.4V40.8H31.2zM33.6,39.6H34.8V40.8H33.6zM36,39.6H37.2V40.8H36zM37.2,39.6H38.4V40.8H37.2zM38.4,39.6H39.6V40.8H38.4zM40.8,39.6H42V40.8H40.8zM42,39.6H43.2V40.8H42zM46.8,39.6H48V40.8H46.8zM49.2,39.6H50.4V40.8H49.2zM2.4,40.8H3.6V42H2.4zM6,40.8H7.2V42H6zM7.2,40.8H8.4V42H7.2zM9.6,40.8H10.8V42H9.6zM10.8,40.8H12V42H10.8zM12,40.8H13.2V42H12zM25.2,40.8H26.4V42H25.2zM26.4,40.8H27.6V42H26.4zM27.6,40.8H28.8V42H27.6zM28.8,40.8H30V42H28.8zM31.2,40.8H32.4V42H31.2zM32.4,40.8H33.6V42H32.4zM33.6,40.8H34.8V42H33.6zM39.6,40.8H40.8V42H39.6zM40.8,40.8H42V42H40.8zM42,40.8H43.2V42H42zM43.2,40.8H44.4V42H43.2zM44.4,40.8H45.6V42H44.4zM45.6,40.8H46.8V42H45.6zM46.8,40.8H48V42H46.8zM48,40.8H49.2V42H48zM49.2,40.8H50.4V42H49.2zM12,42H13.2V43.2H12zM13.2,42H14.4V43.2H13.2zM14.4,42H15.6V43.2H14.4zM15.6,42H16.8V43.2H15.6zM16.8,42H18V43.2H16.8zM18,42H19.2V43.2H18zM21.6,42H22.8V43.2H21.6zM24,42H25.2V43.2H24zM25.2,42H26.4V43.2H25.2zM27.6,42H28.8V43.2H27.6zM28.8,42H30V43.2H28.8zM31.2,42H32.4V43.2H31.2zM32.4,42H33.6V43.2H32.4zM36,42H37.2V43.2H36zM39.6,42H40.8V43.2H39.6zM40.8,42H42V43.2H40.8zM45.6,42H46.8V43.2H45.6zM48,42H49.2V43.2H48zM49.2,42H50.4V43.2H49.2zM50.4,42H51.6V43.2H50.4zM2.4,43.2H3.6V44.4H2.4zM3.6,43.2H4.8V44.4H3.6zM4.8,43.2H6V44.4H4.8zM6,43.2H7.2V44.4H6zM7.2,43.2H8.4V44.4H7.2zM8.4,43.2H9.6V44.4H8.4zM9.6,43.2H10.8V44.4H9.6zM12,43.2H13.2V44.4H12zM15.6,43.2H16.8V44.4H15.6zM16.8,43.2H18V44.4H16.8zM19.2,43.2H20.4V44.4H19.2zM20.4,43.2H21.6V44.4H20.4zM21.6,43.2H22.8V44.4H21.6zM24,43.2H25.2V44.4H24zM26.4,43.2H27.6V44.4H26.4zM28.8,43.2H30V44.4H28.8zM32.4,43.2H33.6V44.4H32.4zM40.8,43.2H42V44.4H40.8zM43.2,43.2H44.4V44.4H43.2zM45.6,43.2H46.8V44.4H45.6zM48,43.2H49.2V44.4H48zM49.2,43.2H50.4V44.4H49.2zM2.4,44.4H3.6V45.6H2.4zM9.6,44.4H10.8V45.6H9.6zM12,44.4H13.2V45.6H12zM14.4,44.4H15.6V45.6H14.4zM18,44.4H19.2V45.6H18zM24,44.4H25.2V45.6H24zM28.8,44.4H30V45.6H28.8zM32.4,44.4H33.6V45.6H32.4zM36,44.4H37.2V45.6H36zM38.4,44.4H39.6V45.6H38.4zM40.8,44.4H42V45.6H40.8zM45.6,44.4H46.8V45.6H45.6zM48,44.4H49.2V45.6H48zM2.4,45.6H3.6V46.8H2.4zM4.8,45.6H6V46.8H4.8zM6,45.6H7.2V46.8H6zM7.2,45.6H8.4V46.8H7.2zM9.6,45.6H10.8V46.8H9.6zM13.2,45.6H14.4V46.8H13.2zM18,45.6H19.2V46.8H18zM21.6,45.6H22.8V46.8H21.6zM25.2,45.6H26.4V46.8H25.2zM28.8,45.6H30V46.8H28.8zM31.2,45.6H32.4V46.8H31.2zM32.4,45.6H33.6V46.8H32.4zM34.8,45.6H36V46.8H34.8zM36,45.6H37.2V46.8H36zM37.2,45.6H38.4V46.8H37.2zM40.8,45.6H42V46.8H40.8zM42,45.6H43.2V46.8H42zM43.2,45.6H44.4V46.8H43.2zM44.4,45.6H45.6V46.8H44.4zM45.6,45.6H46.8V46.8H45.6zM49.2,45.6H50.4V46.8H49.2zM50.4,45.6H51.6V46.8H50.4zM2.4,46.8H3.6V48H2.4zM4.8,46.8H6V48H4.8zM6,46.8H7.2V48H6zM7.2,46.8H8.4V48H7.2zM9.6,46.8H10.8V48H9.6zM12,46.8H13.2V48H12zM13.2,46.8H14.4V48H13.2zM14.4,46.8H15.6V48H14.4zM15.6,46.8H16.8V48H15.6zM19.2,46.8H20.4V48H19.2zM20.4,46.8H21.6V48H20.4zM24,46.8H25.2V48H24zM25.2,46.8H26.4V48H25.2zM26.4,46.8H27.6V48H26.4zM28.8,46.8H30V48H28.8zM31.2,46.8H32.4V48H31.2zM32.4,46.8H33.6V48H32.4zM37.2,46.8H38.4V48H37.2zM38.4,46.8H39.6V48H38.4zM42,46.8H43.2V48H42zM43.2,46.8H44.4V48H43.2zM45.6,46.8H46.8V48H45.6zM49.2,46.8H50.4V48H49.2zM50.4,46.8H51.6V48H50.4zM2.4,48H3.6V49.2H2.4zM4.8,48H6V49.2H4.8zM6,48H7.2V49.2H6zM7.2,48H8.4V49.2H7.2zM9.6,48H10.8V49.2H9.6zM14.4,48H15.6V49.2H14.4zM16.8,48H18V49.2H16.8zM19.2,48H20.4V49.2H19.2zM20.4,48H21.6V49.2H20.4zM26.4,48H27.6V49.2H26.4zM28.8,48H30V49.2H28.8zM30,48H31.2V49.2H30zM31.2,48H32.4V49.2H31.2zM32.4,48H33.6V49.2H32.4zM33.6,48H34.8V49.2H33.6zM36,48H37.2V49.2H36zM37.2,48H38.4V49.2H37.2zM39.6,48H40.8V49.2H39.6zM45.6,48H46.8V49.2H45.6zM46.8,48H48V49.2H46.8zM49.2,48H50.4V49.2H49.2zM50.4,48H51.6V49.2H50.4zM2.4,49.2H3.6V50.4H2.4zM9.6,49.2H10.8V50.4H9.6zM12,49.2H13.2V50.4H12zM14.4,49.2H15.6V50.4H14.4zM15.6,49.2H16.8V50.4H15.6zM16.8,49.2H18V50.4H16.8zM18,49.2H19.2V50.4H18zM19.2,49.2H20.4V50.4H19.2zM20.4,49.2H21.6V50.4H20.4zM22.8,49.2H24V50.4H22.8zM24,49.2H25.2V50.4H24zM25.2,49.2H26.4V50.4H25.2zM26.4,49.2H27.6V50.4H26.4zM30,49.2H31.2V50.4H30zM32.4,49.2H33.6V50.4H32.4zM36,49.2H37.2V50.4H36zM37.2,49.2H38.4V50.4H37.2zM40.8,49.2H42V50.4H40.8zM43.2,49.2H44.4V50.4H43.2zM44.4,49.2H45.6V50.4H44.4zM49.2,49.2H50.4V50.4H49.2zM2.4,50.4H3.6V51.6H2.4zM3.6,50.4H4.8V51.6H3.6zM4.8,50.4H6V51.6H4.8zM6,50.4H7.2V51.6H6zM7.2,50.4H8.4V51.6H7.2zM8.4,50.4H9.6V51.6H8.4zM9.6,50.4H10.8V51.6H9.6zM14.4,50.4H15.6V51.6H14.4zM16.8,50.4H18V51.6H16.8zM18,50.4H19.2V51.6H18zM21.6,50.4H22.8V51.6H21.6zM22.8,50.4H24V51.6H22.8zM24,50.4H25.2V51.6H24zM31.2,50.4H32.4V51.6H31.2zM34.8,50.4H36V51.6H34.8zM37.2,50.4H38.4V51.6H37.2zM40.8,50.4H42V51.6H40.8zM43.2,50.4H44.4V51.6H43.2zM44.4,50.4H45.6V51.6H44.4zM45.6,50.4H46.8V51.6H45.6zM46.8,50.4H48V51.6H46.8zM49.2,50.4H50.4V51.6H49.2z" id="qr-path" fill="#000000" fill-opacity="1" fill-rule="nonzero" stroke="none" /></svg>