<svg viewBox="0 0 320 2000" xmlns="http://www.w3.org/2000/svg" font-family="Roboto, sans-serif">
  <!-- Versión vertical de wmp-domicilios.svg para pantallas angostas: los tres
       niveles apilados. Mismo contenido, mismo orden. En el deck se muestra con
       desplazamiento vertical, sin max-height. -->
  <rect width="320" height="2000" fill="#ffffff"/>
  <g>
    <rect x="20" y="20" width="280" height="560" rx="28" fill="#ffffff" stroke="#222222" stroke-width="3"/>
    <rect x="120" y="36" width="80" height="10" rx="5" fill="#dddddd"/>
    <rect x="44" y="66" width="232" height="36" fill="#e5e5e5"/>
    <rect x="44" y="118" width="232" height="140" fill="#f2f2f2" stroke="#cccccc" stroke-width="1.5"/>
    <line x1="44" y1="118" x2="276" y2="258" stroke="#cccccc" stroke-width="1.5"/>
    <line x1="276" y1="118" x2="44" y2="258" stroke="#cccccc" stroke-width="1.5"/>
    <rect x="44" y="274" width="180" height="16" fill="#dddddd"/>
    <rect x="44" y="300" width="130" height="11" fill="#e5e5e5"/>
    <rect x="44" y="332" width="68" height="28" rx="14" fill="none" stroke="#bbbbbb" stroke-width="1.5"/>
    <rect x="126" y="332" width="68" height="28" rx="14" fill="none" stroke="#bbbbbb" stroke-width="1.5"/>
    <rect x="208" y="332" width="68" height="28" rx="14" fill="none" stroke="#bbbbbb" stroke-width="1.5"/>
    <rect x="44" y="384" width="90" height="14" fill="#dddddd"/>
    <rect x="196" y="386" width="80" height="11" fill="#e5e5e5"/>
    <rect x="44" y="428" width="232" height="48" rx="10" fill="#e5e5e5" stroke="#999999" stroke-width="1.5"/>
    <rect x="105" y="447" width="110" height="10" fill="#bbbbbb"/>
    <text x="160" y="636" text-anchor="middle" font-size="20" font-weight="900" letter-spacing="2" fill="#111111" text-transform="uppercase">Wireframe</text>
    <text x="160" y="662" text-anchor="middle" font-size="15" fill="#6f6f6f">la estructura</text>
  </g>
  <g>
    <rect x="20" y="680" width="280" height="560" rx="28" fill="#ffffff" stroke="#222222" stroke-width="3"/>
    <rect x="120" y="696" width="80" height="10" rx="5" fill="#dddddd"/>
    <rect x="44" y="726" width="232" height="36" fill="#222222"/>
    <text x="56" y="749" font-size="14" font-weight="700" fill="#ffffff">La Arepería</text>
    <rect x="44" y="778" width="232" height="140" fill="#f2f2f2"/>
    <circle cx="160" cy="848" r="44" fill="#ffffff" stroke="#dddddd" stroke-width="2"/>
    <circle cx="160" cy="848" r="28" fill="#eeff41"/>
    <text x="44" y="948" font-size="17" font-weight="900" fill="#111111">Arepa de choclo</text>
    <text x="44" y="968" font-size="12" fill="#6f6f6f">Queso · mantequilla · sal</text>
    <rect x="44" y="992" width="68" height="28" rx="14" fill="none" stroke="#cccccc" stroke-width="1.5"/>
    <text x="78" y="1010" text-anchor="middle" font-size="11" fill="#666666">Sola</text>
    <rect x="126" y="992" width="82" height="28" rx="14" fill="#222222"/>
    <text x="167" y="1010" text-anchor="middle" font-size="11" font-weight="700" fill="#ffffff">Con queso</text>
    <rect x="222" y="992" width="54" height="28" rx="14" fill="none" stroke="#cccccc" stroke-width="1.5"/>
    <text x="249" y="1010" text-anchor="middle" font-size="11" fill="#666666">Doble</text>
    <text x="44" y="1056" font-size="15" font-weight="900" fill="#111111">$12.000</text>
    <text x="276" y="1056" text-anchor="end" font-size="12" fill="#6f6f6f">15–20 min</text>
    <rect x="44" y="1088" width="232" height="48" rx="10" fill="#eeff41"/>
    <text x="160" y="1117" text-anchor="middle" font-size="14" font-weight="900" fill="#111111">Agregar · $12.000</text>
    <text x="160" y="1296" text-anchor="middle" font-size="20" font-weight="900" letter-spacing="2" fill="#111111" text-transform="uppercase">Mockup</text>
    <text x="160" y="1322" text-anchor="middle" font-size="15" fill="#6f6f6f">la apariencia</text>
  </g>
  <g>
    <rect x="20" y="1340" width="280" height="560" rx="28" fill="#ffffff" stroke="#222222" stroke-width="3"/>
    <rect x="120" y="1356" width="80" height="10" rx="5" fill="#dddddd"/>
    <rect x="44" y="1386" width="232" height="36" fill="#222222"/>
    <text x="56" y="1409" font-size="14" font-weight="700" fill="#ffffff">La Arepería</text>
    <rect x="44" y="1438" width="232" height="140" fill="#f2f2f2"/>
    <circle cx="160" cy="1508" r="44" fill="#ffffff" stroke="#dddddd" stroke-width="2"/>
    <circle cx="160" cy="1508" r="28" fill="#eeff41"/>
    <text x="44" y="1608" font-size="17" font-weight="900" fill="#111111">Arepa de choclo</text>
    <text x="44" y="1628" font-size="12" fill="#6f6f6f">Queso · mantequilla · sal</text>
    <rect x="44" y="1652" width="68" height="28" rx="14" fill="none" stroke="#cccccc" stroke-width="1.5"/>
    <text x="78" y="1670" text-anchor="middle" font-size="11" fill="#666666">Sola</text>
    <rect x="126" y="1652" width="82" height="28" rx="14" fill="#222222"/>
    <text x="167" y="1670" text-anchor="middle" font-size="11" font-weight="700" fill="#ffffff">Con queso</text>
    <rect x="222" y="1652" width="54" height="28" rx="14" fill="none" stroke="#cccccc" stroke-width="1.5"/>
    <text x="249" y="1670" text-anchor="middle" font-size="11" fill="#666666">Doble</text>
    <text x="44" y="1716" font-size="15" font-weight="900" fill="#111111">$12.000</text>
    <text x="276" y="1716" text-anchor="end" font-size="12" fill="#6f6f6f">15–20 min</text>
    <rect x="44" y="1840" width="232" height="34" rx="8" fill="#222222"/>
    <text x="160" y="1861" text-anchor="middle" font-size="13" font-weight="700" fill="#ffffff">Agregado al pedido ✓</text>
    <rect x="44" y="1748" width="232" height="48" rx="10" fill="#eeff41" stroke="#111111" stroke-width="2.5"/>
    <text x="160" y="1777" text-anchor="middle" font-size="14" font-weight="900" fill="#111111">Agregar · $12.000</text>
    <circle cx="236" cy="1772" r="18" fill="none" stroke="#444444" stroke-width="2"/>
    <circle cx="236" cy="1772" r="7" fill="#444444"/>
    <text x="160" y="1956" text-anchor="middle" font-size="20" font-weight="900" letter-spacing="2" fill="#111111" text-transform="uppercase">Prototipo</text>
    <text x="160" y="1982" text-anchor="middle" font-size="15" fill="#6f6f6f">el funcionamiento</text>
  </g>
</svg>
